<svg xmlns="http://www.w3.org/2000/svg" version="1.1" xmlns:xlink="http://www.w3.org/1999/xlink" xmlns:svgjs="http://svgjs.dev/svgjs" width="100%" height="100%" viewBox="0 0 1000 600"><rect width="1000" height="600" x="0" y="0" fill="#f96167"/><g><rect width="333.3333333333333" height="333.3333333333333" rx="13.333333333333334" ry="13.333333333333334" y="272.9512870281528" fill="#fce77d" transform="matrix(0.4985461605167827,0,0,0.49854616051678263,-8.407396489543455,80.83016602174138)" x="284.3589782714844"/><path d="M350.53474479299746 476.8770630939215L350.53474479299746 476.8770630939215Q352.73698351391397 481.33659650377746 352.73698351391397 487.3927529862979Q352.73698351391397 493.4213814848069 352.076311897639 497.6056350545483Q351.3881122973526 501.7623606402782 350.1493530168371 505.1483026736874L350.1493530168371 505.1483026736874Q347.4240825997029 512.6909702928265 343.07466112589276 512.6909702928265L343.07466112589276 512.6909702928265L267.5929289664789 512.6909702928265Q273.4839175449306 506.3870619542029 278.13614684286676 495.2657564135745L278.13614684286676 495.2657564135745L286.2569021262464 475.1428001011997Q314.3354458179321 399.4683720537057 317.1433001871007 390.9071690261427Q319.9511545562692 382.31843801456824 319.9511545562692 379.3729437253424Q319.9511545562692 376.42744943611655 316.59274050687156 375.35385805966973Q313.2618544414853 374.30779466723436 306.79277819879303 374.30779466723436Q300.29617397208926 374.30779466723436 296.00180846630207 376.5375613721624Q291.67991497650337 378.7398000930789 288.40408487914004 382.7313577747401L288.40408487914004 382.7313577747401Q282.67826420475706 389.3931299055126 277.4479472425803 404.2857692557106L277.4479472425803 404.2857692557106Q274.83278876149194 401.69813875863366 274.83278876149194 394.1279431554831Q274.83278876149194 386.585275536344 275.46593239375545 381.9330462384079Q276.09907602601896 377.30834492448315 277.36536329054593 373.42689917886776L277.36536329054593 373.42689917886776Q280.0631057236687 364.6179442952017 284.90803090968507 364.6179442952017L284.90803090968507 364.6179442952017L354.003270778441 364.6179442952017Q349.2684575284705 371.8853320742262 345.0016200066947 382.2358540625339L345.0016200066947 382.2358540625339L337.54153633959 401.00993915834727Q321.685417548991 443.8710102641851 317.72138785134126 455.21253967690524L317.72138785134126 455.21253967690524Q307.94895352727417 483.45625127265964 306.18716255054096 488.7966801708822Q304.4528995578192 494.1095810850933 304.4528995578192 496.3393477900213L304.4528995578192 496.3393477900213Q304.4528995578192 503.00111992079377 315.2989252583331 503.00111992079377L315.2989252583331 503.00111992079377Q327.7691020155229 503.00111992079377 335.614577458788 497.11013134234213L335.614577458788 497.11013134234213Q343.26735701397297 491.4118386519706 350.53474479299746 476.8770630939215ZM435.29340756427223 479.7950293991359L435.29340756427223 479.7950293991359Q438.78946153372715 482.10738005609824 438.78946153372715 487.86072871449267Q438.78946153372715 493.6140773728871 437.2478944290856 497.9910268307087Q435.67879934043265 502.3404483045188 431.8248815788287 506.1117821140883L431.8248815788287 506.1117821140883Q423.098510647197 514.6179291736285 405.28790499178456 514.6179291736285L405.28790499178456 514.6179291736285Q384.58686101516923 514.6179291736285 373.7408353146553 499.33989804727L373.7408353146553 499.33989804727Q364.16109687866845 485.6860179775876 364.16109687866845 462.4523994719183L364.16109687866845 462.4523994719183Q364.16109687866845 439.0536130621802 377.1267773480645 425.6750128326123L377.1267773480645 425.6750128326123Q389.43178620118556 413.0121401873423 410.4356380019269 413.0121401873423L410.4356380019269 413.0121401873423Q425.0529975120104 413.0121401873423 433.2563367474244 421.5182872468824L433.2563367474244 421.5182872468824Q439.75294097412814 428.2901713137007 439.75294097412814 437.15418216538967Q439.75294097412814 446.0181930170787 436.3119429726961 453.1204128920345Q432.87094497126407 460.2501607510018 426.20917284049153 465.3703657771327L426.20917284049153 465.3703657771327Q412.4727088187748 476.0236955895664 387.7801071604982 476.60178325380696L387.7801071604982 476.60178325380696Q389.817177977346 496.03653996589526 399.97500407757343 502.6157281446334L399.97500407757343 502.6157281446334Q403.6637539351086 504.9556067856072 409.7474384016405 504.9556067856072Q415.85865085218387 504.9556067856072 422.7131188710366 498.5691144949493Q429.5951148739007 492.18262220429136 435.29340756427223 479.7950293991359ZM387.2020194962576 464.4068863367317L387.2020194962576 467.40743659398044Q417.78560973298585 465.3703657771327 417.78560973298585 437.78732579765324L417.78560973298585 437.78732579765324Q417.78560973298585 427.4368038093455 411.5918133304081 423.85816588785616L411.5918133304081 423.85816588785616Q409.47215856152593 422.6744625753636 405.976104592071 422.6744625753636Q402.480050622616 422.6744625753636 398.95646866914956 424.82164532825715Q395.43288671568314 426.94130009713933 392.81772823459477 431.78622528315566L392.81772823459477 431.78622528315566Q387.2020194962576 442.32944315954353 387.2020194962576 464.4068863367317L387.2020194962576 464.4068863367317ZM488.80780848254375 512.6909702928265L461.0320726149841 512.6909702928265Q465.49160602484005 497.4129391664681 465.49160602484005 460.1400488149559L465.49160602484005 460.1400488149559Q465.49160602484005 433.63060021192325 460.8393767269039 423.94074983989054L460.8393767269039 423.94074983989054Q459.68320139842274 421.5182872468824 458.2242182458155 419.39863247800025L458.2242182458155 419.39863247800025L455.03097210048657 414.9390990681443L488.61511259446354 414.9390990681443Q487.1836574258678 419.7840242541606 486.68815371366156 424.05086177593637L486.68815371366156 424.05086177593637L485.91737016134084 431.0154417308349Q497.61676336620985 413.0121401873423 515.7301768457482 413.0121401873423L515.7301768457482 413.0121401873423Q527.4295700506174 413.0121401873423 534.0087582293554 422.096374911123L534.0087582293554 422.096374911123Q540.3952505200133 431.0154417308349 540.3952505200133 446.2108889051589L540.3952505200133 446.2108889051589L540.3952505200133 456.5614108934666Q540.3952505200133 483.18097143254505 540.8907542322196 489.07196001099675Q541.3587299604143 494.9904765734599 541.6615377845403 498.07361078274306Q541.936817624655 501.1842729760376 542.3497373848268 503.6067355690458L542.3497373848268 503.6067355690458Q543.0104090011017 508.1488529309362 544.3592802176631 512.6909702928265L544.3592802176631 512.6909702928265L516.0054566858628 512.6909702928265Q520.4649900957188 497.4129391664681 520.4649900957188 460.1400488149559L520.4649900957188 460.1400488149559Q520.4649900957188 445.24740946475794 518.5655591989283 439.71428467845516Q516.6936562861492 434.2086878761638 514.0784978050609 431.8412812511786Q511.4633393239725 429.4738746261933 507.19650180219674 429.4738746261933L507.19650180219674 429.4738746261933Q499.37855434294306 429.4738746261933 492.9920620522851 435.66767102877105L492.9920620522851 435.66767102877105Q487.4589372659824 440.9805719429822 484.56849894477944 449.21143916240766L484.56849894477944 449.21143916240766Q484.3758030566992 451.82659764349603 484.3758030566992 454.6344520126646L484.3758030566992 454.6344520126646L484.3758030566992 460.1400488149559Q484.3758030566992 497.4129391664681 488.80780848254375 512.6909702928265L488.80780848254375 512.6909702928265ZM629.6409746851555 409.24080637777274L629.6409746851555 409.24080637777274Q632.2561331662439 415.0492110041901 632.2561331662439 420.9401995826418Q632.2561331662439 426.85871614510495 631.7055734860147 430.7126339067089Q631.182541789797 434.59407965232424 630.1089504133503 438.1727175738136L630.1089504133503 438.1727175738136Q627.686487820342 446.29347285719325 623.2544823944976 450.6428943310034L623.2544823944976 450.6428943310034Q620.2539321372487 435.66767102877105 616.7028221997708 431.2081376189151Q613.1792402463044 426.7486042090591 609.655658292838 425.20703710441757Q606.1045483553601 423.665469999776 602.1405186577103 423.665469999776Q598.1764889600606 423.665469999776 595.6714424150181 424.4362535520968Q593.1388678859641 425.20703710441757 591.2944929571966 426.66602025702474L591.2944929571966 426.66602025702474Q587.1377673714666 429.8592664023537 587.1377673714666 433.90588005203784Q587.1377673714666 437.9800216857334 589.1748381883143 440.92551597495924Q591.2119090051622 443.8710102641851 594.5427950705483 446.458640761262Q597.9012091199461 449.01874327432745 602.1405186577103 451.44120586733567L602.1405186577103 451.44120586733567L610.8668895893421 456.3687150053864Q622.070779082005 462.64509535999844 626.2550326517463 466.82934892973987L626.2550326517463 466.82934892973987Q634.4583718871604 475.0326881651539 634.4583718871604 484.14445087294604L634.4583718871604 484.14445087294604Q634.4583718871604 496.03653996589526 626.3376166037807 504.18482323328635L626.3376166037807 504.18482323328635Q616.0696785675074 514.6179291736285 595.5613304789723 514.6179291736285L595.5613304789723 514.6179291736285Q576.8973573192047 514.6179291736285 567.510314771298 505.9190862260082L567.510314771298 505.9190862260082Q564.7850443541638 503.38651169695413 563.6288690256827 500.8814651519116L563.6288690256827 500.8814651519116Q564.3996525780034 493.6140773728871 570.1254732523864 487.22758508222915L570.1254732523864 487.22758508222915Q575.6310700546777 481.0337886796515 580.8613870168545 480.0703092392505L580.8613870168545 480.0703092392505Q580.475995240694 481.33659650377746 580.475995240694 483.84164304882Q580.475995240694 486.374217577874 581.9074504092898 490.0904954194207Q583.366433561897 493.80677326096725 586.0917039790312 497.00001940629625L586.0917039790312 497.00001940629625Q592.175388445563 504.3775191213666 599.8281680007481 504.3775191213666Q607.480947555933 504.3775191213666 611.0595854774223 500.8814651519116Q614.6382233989116 497.4129391664681 614.6382233989116 492.95340575661214Q614.6382233989116 488.4938723467562 612.6011525820638 485.4933220895074Q610.5640817652161 482.49277183225865 607.2331956998298 479.8776133511703Q603.8747816504322 477.2624548700819 599.6354721126679 474.83999227707375L599.6354721126679 474.83999227707375L590.9091011810361 469.912483139023Q579.7877956404077 463.3332949602849 575.6310700546777 458.6810656623487L575.6310700546777 458.6810656623487Q567.3176188832178 449.40413505048787 567.3176188832178 438.47552539793963L567.3176188832178 438.47552539793963Q567.3176188832178 426.94130009713933 576.9799412712391 419.7840242541606L576.9799412712391 419.7840242541606Q586.1742879310656 413.0121401873423 599.9107519527824 413.0121401873423L599.9107519527824 413.0121401873423L616.950574055874 414.16831551582345Q623.1443704584518 414.16831551582345 625.56683305146 412.68180437920483Q627.9892956444681 411.1677652585747 629.6409746851555 409.24080637777274Z " fill="#f96167" transform="matrix(0.4985461605167827,0,0,0.49854616051678263,-8.407396489543455,80.83016602174138)"/><path d="M785.3871000548589 477.52378536067283L785.3871000548589 477.52378536067283Q787.9574460851557 481.0411009810788 787.9574460851557 487.69694438584713Q787.9574460851557 494.3527877906154 787.3892643310901 498.3030037950714Q786.8210825770245 502.2532197995274 785.5764939728808 505.49997267990216L785.5764939728808 505.49997267990216Q782.7355852025529 512.7239978387361 778.0819060740157 512.7239978387361L778.0819060740157 512.7239978387361L701.0256377131209 512.7239978387361Q708.3578879679673 508.82789438228633 710.7117838062389 505.2023536658678L710.7117838062389 505.2023536658678Q715.2031252907575 498.46534143909014 715.2031252907575 488.0757322218908L715.2031252907575 488.0757322218908Q715.0949001947449 462.69694720696134 715.0949001947449 442.1341789645877L715.0949001947449 442.1341789645877L715.0949001947449 392.1071283328129Q715.0949001947449 377.92964075517637 710.6306149842296 371.5714163644424L710.6306149842296 371.5714163644424Q708.9260697220328 369.271633074177 706.545117609758 367.1882999759365L706.545117609758 367.1882999759365L778.0819060740157 367.1882999759365Q784.5483555607622 369.4610269921988 786.9022513990338 383.17855791178226L786.9022513990338 383.17855791178226Q787.5786582491119 386.96643627221954 787.5786582491119 390.591976988638L787.5786582491119 390.591976988638Q787.5786582491119 398.00539606549376 785.3871000548589 402.38851245399974L785.3871000548589 402.38851245399974L780.2464079942656 392.1071283328129Q775.1327722076753 382.04219440365114 765.5007386625634 378.60604760525445L765.5007386625634 378.60604760525445Q760.1977089579512 376.7121084250358 753.5148092791799 376.7121084250358Q746.8589658744115 376.7121084250358 744.0180571040836 377.1179525350827Q741.1500920597525 377.55085291913264 739.6349407155776 379.17422935932007L739.6349407155776 379.17422935932007Q737.1728197812935 381.93396930763856 737.1728197812935 389.69911994653495Q737.1728197812935 397.4372143114282 737.5516076173371 400.44046072577487Q737.9303954533809 403.44370714012155 739.3643779755464 405.3376463203402L739.3643779755464 405.3376463203402Q742.3135118418868 409.04435585876803 751.8102640169831 409.04435585876803L751.8102640169831 409.04435585876803L781.6803905164311 409.04435585876803Q779.488832322178 414.56383575540514 777.2161053059158 416.8365627716675L777.2161053059158 416.8365627716675Q772.6435949993879 421.4090730781953 764.8513880864884 421.4090730781953L764.8513880864884 421.4090730781953Q761.7940291241355 421.4090730781953 759.034289175817 420.73266622811724L759.034289175817 420.73266622811724Q753.9206533892267 419.5151338979767 749.9974936587738 419.5151338979767Q746.1013902023241 419.5151338979767 743.5851567200336 420.2185970220579Q741.0689232377432 420.9220601461391 739.6349407155776 422.4642677643171L739.6349407155776 422.4642677643171Q737.1728197812935 425.11578261662316 737.1728197812935 432.06924503542587L737.1728197812935 432.06924503542587L737.1728197812935 477.4426165386634Q737.1728197812935 495.32681365472786 739.1749840575246 498.65473535711203Q741.1500920597525 501.98265705949615 744.0180571040836 502.604951361568Q746.8589658744115 503.20018938963665 753.5148092791799 503.20018938963665Q760.1977089579512 503.20018938963665 765.6089637585759 501.30625020941807Q771.0202185592005 499.4123110291995 774.6998718236252 495.9761642308028Q778.3524688140469 492.5670737064093 780.7334209263217 487.8592820298659Q783.1143730385966 483.1514903533224 785.3871000548589 477.52378536067283ZM833.3308175883932 512.7239978387361L805.2734614471545 512.7239978387361Q809.6565778356604 497.7077657670027 809.6565778356604 461.07357076677386L809.6565778356604 461.07357076677386Q809.6565778356604 435.01837890176625 805.4628553651763 425.4945704526669L805.4628553651763 425.4945704526669Q803.7583101029796 421.5984669962172 799.3751937144737 416.64716885364567L799.3751937144737 416.64716885364567L833.1414236703713 416.64716885364567Q831.4368784081746 422.653661682339 830.3816837220528 433.09738344754453L830.3816837220528 433.09738344754453Q839.3373104170865 421.89608601025157 855.3005120789293 417.21535060771123L855.3005120789293 417.21535060771123Q862.1457494017194 415.21318633148013 865.2842771860817 410.93829503898667L865.2842771860817 410.93829503898667Q868.422804970444 418.4599392118549 868.422804970444 423.8711940124795Q868.422804970444 429.3095050871073 867.8546232163784 433.9090716676382Q867.2864414623128 438.5356945221723 866.1500779541816 442.91881091067825L866.1500779541816 442.91881091067825Q863.6879570198975 452.33439426376515 859.5754033714227 457.5562551463679L859.5754033714227 457.5562551463679Q856.0580877510167 438.9956511802254 848.6446686741609 435.8571233958631L848.6446686741609 435.8571233958631Q840.094886089174 432.15041385743524 831.8968350662277 445.94911359902807L831.8968350662277 445.94911359902807Q830.1922898040309 448.790022369356 829.0559262958998 452.0367752497308L829.0559262958998 452.0367752497308Q828.9477011998872 454.22833344398373 828.9477011998872 456.5010604602461Q828.9477011998872 458.80084375051155 828.9477011998872 461.07357076677386L828.9477011998872 461.07357076677386Q828.9477011998872 497.7077657670027 833.3308175883932 512.7239978387361L833.3308175883932 512.7239978387361ZM1001.7831795318382 381.93396930763856L1001.7831795318382 381.93396930763856Q1001.7831795318382 372.7077798725736 995.8849117991573 367.1882999759365L995.8849117991573 367.1882999759365L1029.651141755055 367.1882999759365Q1023.8610991183866 372.22076694051736 1020.2355584019681 381.25756245756054L1020.2355584019681 381.25756245756054Q1019.0180260718275 384.31492141991345 1017.773437467684 387.83223704031946Q1016.5288488635402 391.34955266072546 1014.9054724233529 397.8160021474719L1014.9054724233529 397.8160021474719L1011.4963818989594 412.66989657518656Q1009.4942176227282 421.2196791601735 1007.4108845244878 431.3116693633384L1007.4108845244878 431.3116693633384Q996.4530935532229 483.6114470113755 995.0732235790636 489.75322121008446Q993.6933536049044 495.8949954087934 993.6933536049044 501.4415315794337Q993.6933536049044 507.01512402407707 996.1825308131916 512.8322229347485L996.1825308131916 512.8322229347485L962.876257515347 512.7239978387361Q965.1760408056125 509.20668221833 965.6089411896625 506.122266981974Q966.0147852997093 503.0107954716148 966.0147852997093 498.5465102610995Q966.0147852997093 494.08222505058416 964.4996339555344 485.23482345156293Q962.9844826113595 476.3874218525416 960.4953054030722 465.07789931923617L960.4953054030722 465.07789931923617L948.4282071976793 413.6980349873052Q933.9801568800115 477.4426165386634 932.0321051517866 486.66880597372847Q930.0569971495586 495.8949954087934 930.0569971495586 501.4144753054305Q930.0569971495586 506.9339552020677 932.4379492618334 512.8322229347485L932.4379492618334 512.8322229347485L899.1587322379919 512.7239978387361Q902.2972600223542 507.69153087415515 902.2972600223542 499.2229171111776L902.2972600223542 499.2229171111776Q902.2972600223542 485.1265983555504 889.743148884905 433.7737902976226L889.743148884905 433.7737902976226Q876.7020248153997 379.9318050314075 867.5840604763472 367.1882999759365L867.5840604763472 367.1882999759365L901.350290432245 367.1882999759365Q899.618688896045 371.3820224464206 899.618688896045 377.2261776310952Q899.618688896045 383.0703328157698 900.6197710341605 390.02379523457245Q901.6208531722762 396.95020137937195 903.2983421604697 405.7164341563839Q904.9487748746603 414.4556106593927 907.0591642469038 424.43937576654514L907.0591642469038 424.43937576654514L919.9920632203967 481.33871999511314Q921.6966084825935 474.00646974026677 923.5905476628121 464.96967422322365L923.5905476628121 464.96967422322365Q928.9206336414275 439.1038762762379 930.8416290956492 428.7413233330417L930.8416290956492 428.7413233330417L934.0613257020208 410.55950720294294Q936.9292907463519 393.81167359500967 936.9292907463519 387.91340586232883Q936.9292907463519 382.04219440365114 936.1987713482675 376.60388332902335Q935.4953082241864 371.1926285283987 932.546174357846 367.1882999759365L932.546174357846 367.1882999759365L968.1251746719529 367.1882999759365Q964.1208461194907 374.7099441488047 964.1208461194907 384.3960902419228L964.1208461194907 384.3960902419228Q964.1208461194907 391.6471716747598 968.6933564260185 413.6980349873052L968.6933564260185 413.6980349873052L979.7323162192927 465.3484620592674L983.7095884977518 482.58330859925684L991.7182456026763 444.51513107686253Q993.6933536049044 434.2608032296788 995.5061239631136 424.24998184852325L995.5061239631136 424.24998184852325L998.7528768434884 405.79760297839323Q1001.7831795318382 387.64284312229756 1001.7831795318382 381.93396930763856ZM1101.485549233347 480.39175040500385L1101.485549233347 480.39175040500385Q1104.8946397577406 482.6644774212662 1104.8946397577406 488.319238687919Q1104.8946397577406 493.9739999545717 1103.3794884135657 498.27594752106825Q1101.8643370693908 502.55083881356177 1098.0494024349505 506.2575483519896L1098.0494024349505 506.2575483519896Q1089.4996198499634 514.6179370189546 1071.9942105699429 514.6179370189546L1071.9942105699429 514.6179370189546Q1051.620836245591 514.6179370189546 1040.9877205623636 499.6017049472213L1040.9877205623636 499.6017049472213Q1031.5721372092767 486.1817930416722 1031.5721372092767 463.3462977830362L1031.5721372092767 463.3462977830362Q1031.5721372092767 440.3484648803816 1044.3156422647478 427.1991157148637L1044.3156422647478 427.1991157148637Q1056.3827404701408 414.75322967342703 1077.0266775345237 414.75322967342703L1077.0266775345237 414.75322967342703Q1091.3935590301821 414.75322967342703 1099.483384957116 423.1136183403921L1099.483384957116 423.1136183403921Q1105.84160934785 429.76946174516036 1105.84160934785 438.48158197416603Q1105.84160934785 447.1937022031717 1102.4866313714626 454.1742208959775Q1099.1045971210722 461.18179586278643 1092.5299225383133 466.2142628273673L1092.5299225383133 466.2142628273673Q1079.0288418107548 476.68504086657595 1054.7593640299533 477.25322262064157L1054.7593640299533 477.25322262064157Q1056.7615283061843 496.3549520668465 1066.7452934133369 502.821401553593L1066.7452934133369 502.821401553593Q1070.3708341297554 505.12118484385843 1076.3773269584487 505.12118484385843Q1082.356763513139 505.12118484385843 1089.1208320139199 498.84412927513387Q1095.8578442406974 492.5670737064093 1101.485549233347 480.39175040500385ZM1054.1911822758877 465.267293237258L1054.1911822758877 468.21642710359845Q1084.2507026933577 466.2142628273673 1084.2507026933577 439.1038762762379L1084.2507026933577 439.1038762762379Q1084.2507026933577 428.9307172510636 1078.1630410426549 425.4134016306575L1078.1630410426549 425.4134016306575Q1076.0797079444144 424.24998184852325 1072.6435611460176 424.24998184852325Q1069.2344706216243 424.24998184852325 1065.7712675492244 426.36037122076687Q1062.2810082028216 428.44370431900734 1059.7106621725247 433.20560854355705L1059.7106621725247 433.20560854355705Q1054.1911822758877 443.5681614867532 1054.1911822758877 465.267293237258L1054.1911822758877 465.267293237258ZM1155.922772527631 391.0789899206942Q1153.974720799406 394.21751770505654 1151.2149808510874 396.35496335130324Q1148.455240902769 398.49240899755 1144.9379252823628 398.49240899755Q1141.4206096619569 398.49240899755 1138.6608697136385 396.35496335130324Q1135.9011297653196 394.21751770505654 1134.0071905851012 391.0789899206942L1134.0071905851012 391.0789899206942Q1130.1110871286514 384.5854841599447 1130.1110871286514 377.3614590011108L1130.1110871286514 377.3614590011108Q1130.1110871286514 368.622282498102 1138.0926879595727 365.6731486317616L1138.0926879595727 365.6731486317616Q1140.9606530039036 364.6179539456398 1145.0461503783754 364.6179539456398L1145.0461503783754 364.6179539456398Q1156.3556729116808 364.6179539456398 1159.1154128599994 372.5995547765611L1159.1154128599994 372.5995547765611Q1159.9812136280993 374.8993380668266 1159.9812136280993 377.7131905631514Q1159.9812136280993 380.4999867854731 1158.9260189419776 384.2066963239009Q1157.8708242558557 387.91340586232883 1155.922772527631 391.0789899206942ZM1158.1684432698903 512.7239978387361L1130.1110871286514 512.7239978387361Q1134.4942035171573 497.7077657670027 1134.4942035171573 461.07357076677386L1134.4942035171573 461.07357076677386Q1134.4942035171573 435.2889416417975 1129.9216932106297 425.6027955486794L1129.9216932106297 425.6027955486794Q1128.7853297024983 423.1136183403921 1127.3513471803328 421.0302852421516L1127.3513471803328 421.0302852421516L1124.2128193959707 416.64716885364567L1157.979049351868 416.64716885364567Q1153.7853268813842 432.3398077754571 1153.7853268813842 465.0237867712299Q1153.7853268813842 497.7077657670027 1158.1684432698903 512.7239978387361L1158.1684432698903 512.7239978387361ZM1223.130557151389 454.3095022659931L1205.354585131337 400.19695425974675Q1204.9757972952932 414.07682282334895 1204.9757972952932 428.9307172510636L1204.9757972952932 428.9307172510636Q1204.9757972952932 449.1958664794028 1205.6251478713682 472.57248721810123Q1206.3015547214463 495.9761642308028 1206.6262300094838 499.1688045631713Q1206.9509052975213 502.3614448955399 1207.54614332559 504.7423970078147L1207.54614332559 504.7423970078147Q1208.5742817377086 509.09845712231754 1210.9552338499834 512.7239978387361L1210.9552338499834 512.7239978387361L1184.4130290529197 512.7239978387361Q1188.0385697693382 507.58330577814263 1188.7420328934193 501.6850380454618Q1189.4725522915037 495.78677031278096 1189.8513401275472 490.26729041614385L1189.8513401275472 490.26729041614385Q1190.6089157996348 479.0389367048477 1190.6089157996348 460.1266011766646L1190.6089157996348 460.1266011766646Q1190.6089157996348 437.20993709601925 1189.8513401275472 418.27054529383304L1189.8513401275472 418.27054529383304L1188.7961454414256 392.1071283328129Q1188.22796368736 377.65907801514516 1184.1424663128882 371.5714163644424L1184.1424663128882 371.5714163644424Q1182.6002586947104 369.271633074177 1180.2463628564387 367.1882999759365L1180.2463628564387 367.1882999759365L1217.42168333673 367.1882999759365Q1221.1283928751577 383.4491206518135 1226.647872771795 401.71210560392166L1226.647872771795 401.71210560392166L1243.9638881337937 456.98807339230234L1270.5060929308574 367.1882999759365L1307.6002445891395 367.1882999759365Q1302.9465654606022 371.2737973504081 1301.5125829384367 375.54868864290154L1301.5125829384367 375.54868864290154Q1299.4292498401962 382.12336322566046 1299.1316308261619 390.78137090665984L1299.1316308261619 390.78137090665984L1298.4822802500871 407.6103733366025Q1297.2376916459432 437.20993709601925 1297.2376916459432 460.1266011766646L1297.2376916459432 460.1266011766646Q1297.2376916459432 498.5465102610995 1300.7550072663494 508.9090632042957L1300.7550072663494 508.9090632042957Q1301.4043578424244 510.83005865851743 1302.459552528546 512.7239978387361L1302.459552528546 512.7239978387361L1272.5082572070887 512.7239978387361Q1275.0786032373853 507.69153087415515 1275.4032785254228 501.8203194154774Q1275.7279538134603 495.9761642308028 1276.0255728274947 485.7218363836191L1276.0255728274947 485.7218363836191Q1277.1619363356258 451.95560642772136 1277.1619363356258 436.53353024594117L1277.1619363356258 436.53353024594117Q1277.1619363356258 411.1276889570085 1276.6749234035697 398.7629717375812L1276.6749234035697 398.7629717375812L1241.6911611175315 512.7239978387361L1223.130557151389 454.3095022659931ZM1394.8296719752086 461.9393715348739L1394.8296719752086 461.9393715348739L1394.5320529611743 480.202356486982Q1394.5320529611743 497.22075283494644 1397.6705807455364 503.38958330765854L1397.6705807455364 503.38958330765854Q1399.5915761997583 507.12334912008953 1402.1619222300549 509.09845712231754L1402.1619222300549 509.09845712231754L1406.6262074405704 512.7239978387361L1379.0288079573847 512.7239978387361L1376.0796740910441 501.6850380454618Q1365.3383333118045 514.6179370189546 1345.4519719195087 514.6179370189546L1345.4519719195087 514.6179370189546Q1334.1424493862032 514.6179370189546 1327.1889869674005 507.01512402407707L1327.1889869674005 507.01512402407707Q1321.101325316698 500.16988670128694 1321.101325316698 490.8354721702094Q1321.101325316698 481.52811391313503 1325.5385542532101 474.5746514943324Q1329.9487269157191 467.6482453495329 1337.172752074553 463.075735043005L1337.172752074553 463.075735043005Q1351.458464748202 454.22833344398373 1373.0493714026943 453.84954560794L1373.0493714026943 453.84954560794L1373.0493714026943 452.7943509218182Q1373.0493714026943 429.68829292315104 1365.9065150658698 425.6839643706888L1365.9065150658698 425.6839643706888Q1363.3361690355732 424.24998184852325 1359.3047842091078 424.24998184852325Q1355.2463431086394 424.24998184852325 1351.2690708301802 426.9285529748324Q1347.2647422777181 429.5800678271385 1344.0179893973432 433.7737902976226L1344.0179893973432 433.7737902976226Q1337.5515399105968 442.24240406060017 1334.7917999622782 453.74132051192754L1334.7917999622782 453.74132051192754Q1326.3502424733038 448.7088535473466 1326.3502424733038 434.4501971477007L1326.3502424733038 434.4501971477007Q1326.3502424733038 428.63309823702923 1327.865393817479 421.4090730781953L1327.865393817479 421.4090730781953Q1331.463878259894 421.4090730781953 1334.710631140269 420.3538783920735L1334.710631140269 420.3538783920735L1342.0428813951153 418.0811513758112Q1352.7842221743551 414.75322967342703 1363.0656062955418 414.75322967342703Q1373.3199341427257 414.75322967342703 1379.4617083414346 417.7835323617768Q1385.6034825401434 420.84089132412976 1389.0125730645373 426.82032787881997L1389.0125730645373 426.82032787881997Q1394.8296719752086 437.0205431779974 1394.8296719752086 461.9393715348739ZM1341.6640935590717 492.75646762443114Q1341.6640935590717 498.65473535711203 1344.3697209593838 501.87443196348363Q1347.0753483596964 505.12118484385843 1351.1608457341677 505.12118484385843Q1355.2463431086394 505.12118484385843 1359.0612777430797 502.9837391976117Q1362.87621237752 500.84629355136497 1365.9065150658698 497.112527738934L1365.9065150658698 497.112527738934Q1373.0493714026943 488.67097024995957 1373.0493714026943 477.25322262064157L1373.0493714026943 477.25322262064157L1373.0493714026943 463.1569038650144Q1359.7376845931578 464.40149246915803 1351.0796769121584 472.00430546403567L1351.0796769121584 472.00430546403567Q1341.6640935590717 480.202356486982 1341.6640935590717 492.75646762443114L1341.6640935590717 492.75646762443114ZM1492.881608962527 477.52378536067283L1492.881608962527 477.52378536067283Q1495.07316715678 481.90690174917876 1495.07316715678 487.8592820298659Q1495.07316715678 493.7846060365498 1494.423816580705 497.8971596850246Q1493.7474097306267 501.98265705949615 1492.5028211264832 505.31057876188027L1492.5028211264832 505.31057876188027Q1489.8513062741772 512.7239978387361 1485.5764149816837 512.7239978387361L1485.5764149816837 512.7239978387361L1411.38811166512 512.7239978387361Q1417.1781543017883 506.5281110920208 1421.7506646083161 495.59737639475907L1421.7506646083161 495.59737639475907L1429.7322654392374 475.81924009847603Q1457.329664922423 401.4415428638904 1460.0894048707416 393.02704164891907Q1462.8491448190603 384.5854841599447 1462.8491448190603 381.6904628416105Q1462.8491448190603 378.7954415232763 1459.5482793906792 377.7402468371545Q1456.2744702363013 376.7121084250358 1449.8891895715642 376.7121084250358Q1443.5309651808302 376.7121084250358 1439.28313016234 378.9036666192888Q1435.0623514178528 381.06816853953865 1431.815598537478 384.9913282699915L1431.815598537478 384.9913282699915Q1426.2149498188314 391.5389465787473 1421.074257758238 406.17639081443696L1421.074257758238 406.17639081443696Q1418.5039117279414 403.6331010581434 1418.5039117279414 396.1926257072845Q1418.5039117279414 388.77920663042875 1419.1262060300132 384.2066963239009Q1419.7485003320849 379.66124229137625 1420.9930889362288 375.8463076569359L1420.9930889362288 375.8463076569359Q1423.6446037885348 367.1882999759365 1428.4065080130845 367.1882999759365L1428.4065080130845 367.1882999759365L1496.3177557609235 367.1882999759365Q1491.6640766323862 374.331156312761 1487.4703541619024 384.5043153379353L1487.4703541619024 384.5043153379353L1480.1381039070561 402.9566942080653Q1464.5536900812572 445.0833128309281 1460.6575866248072 456.2304977202149L1460.6575866248072 456.2304977202149Q1451.0526093536985 483.99023484741923 1449.3210078174986 489.23915200402513Q1447.616462555302 494.46101288662794 1447.616462555302 496.6525710808809L1447.616462555302 496.6525710808809Q1447.616462555302 503.20018938963665 1458.2766345125324 503.20018938963665L1458.2766345125324 503.20018938963665Q1470.5331266359472 503.20018938963665 1478.2441647268374 497.41014675296833L1478.2441647268374 497.41014675296833Q1485.7658088997055 491.8094980343218 1492.881608962527 477.52378536067283ZM1576.2149328921464 480.39175040500385L1576.2149328921464 480.39175040500385Q1579.6510796905432 482.6644774212662 1579.6510796905432 488.319238687919Q1579.6510796905432 493.9739999545717 1578.108872072365 498.27594752106825Q1576.59372072819 502.55083881356177 1572.805842367753 506.2575483519896L1572.805842367753 506.2575483519896Q1564.2290035087628 514.6179370189546 1546.723594228742 514.6179370189546L1546.723594228742 514.6179370189546Q1526.3772761783935 514.6179370189546 1515.717104221163 499.6017049472213L1515.717104221163 499.6017049472213Q1506.301520868076 486.1817930416722 1506.301520868076 463.3462977830362L1506.301520868076 463.3462977830362Q1506.301520868076 440.3484648803816 1519.045025923547 427.1991157148637L1519.045025923547 427.1991157148637Q1531.139180402943 414.75322967342703 1551.783117467326 414.75322967342703L1551.783117467326 414.75322967342703Q1566.1229426889815 414.75322967342703 1574.2127686159151 423.1136183403921L1574.2127686159151 423.1136183403921Q1580.5980492806523 429.76946174516036 1580.5980492806523 438.48158197416603Q1580.5980492806523 447.1937022031717 1577.2160150302618 454.1742208959775Q1573.8339807798716 461.18179586278643 1567.2863624711158 466.2142628273673L1567.2863624711158 466.2142628273673Q1553.7582254695542 476.68504086657595 1529.5158039627559 477.25322262064157L1529.5158039627559 477.25322262064157Q1531.517968238987 496.3549520668465 1541.5017333461392 502.821401553593L1541.5017333461392 502.821401553593Q1545.127274062558 505.12118484385843 1551.1067106172482 505.12118484385843Q1557.0861471719381 505.12118484385843 1563.850215672719 498.84412927513387Q1570.6142841735 492.5670737064093 1576.2149328921464 480.39175040500385ZM1528.94762220869 465.267293237258L1528.94762220869 468.21642710359845Q1559.0071426261602 466.2142628273673 1559.0071426261602 439.1038762762379L1559.0071426261602 439.1038762762379Q1559.0071426261602 428.9307172510636 1552.9194809754572 425.4134016306575L1552.9194809754572 425.4134016306575Q1550.8090916032138 424.24998184852325 1547.40000107882 424.24998184852325Q1543.9638542804237 424.24998184852325 1540.5006512080236 426.36037122076687Q1537.037448135624 428.44370431900734 1534.4671021053273 433.20560854355705L1534.4671021053273 433.20560854355705Q1528.94762220869 443.5681614867532 1528.94762220869 465.267293237258L1528.94762220869 465.267293237258ZM1628.812329554218 512.7239978387361L1601.5125490850664 512.7239978387361Q1605.8956654735725 497.7077657670027 1605.8956654735725 461.07357076677386L1605.8956654735725 461.07357076677386Q1605.8956654735725 435.01837890176625 1601.3231551670447 425.4945704526669L1601.3231551670447 425.4945704526669Q1600.1867916589135 423.1136183403921 1598.752809136748 421.0302852421516L1598.752809136748 421.0302852421516L1595.6142813523857 416.64716885364567L1628.622935636196 416.64716885364567Q1627.2160093880336 421.4090730781953 1626.7289964559773 425.6027955486794L1626.7289964559773 425.6027955486794L1625.97142078389 432.4480328714696Q1637.4703372352174 414.75322967342703 1655.2733655292723 414.75322967342703L1655.2733655292723 414.75322967342703Q1666.7722819805997 414.75322967342703 1673.238731467346 423.6818000944577L1673.238731467346 423.6818000944577Q1679.5157870360706 432.4480328714696 1679.5157870360706 447.3830961211936L1679.5157870360706 447.3830961211936L1679.5157870360706 457.5562551463679Q1679.5157870360706 483.719672107388 1680.002799968127 489.5097147440564Q1680.46275662618 495.32681365472786 1680.7603756402145 498.3571163430777Q1681.0309383802455 501.4144753054305 1681.4097262162895 503.7954274177054L1681.4097262162895 503.7954274177054Q1682.0861330663674 508.25971262822077 1683.4118904925203 512.7239978387361L1683.4118904925203 512.7239978387361L1655.5439282693037 512.7239978387361Q1659.9270446578096 497.7077657670027 1659.9270446578096 461.07357076677386L1659.9270446578096 461.07357076677386Q1659.9270446578096 446.43612653108426 1658.060161751594 440.9978154564565Q1656.2203351193816 435.5865606558319 1653.6499890890848 433.2597210915633Q1651.0796430587884 430.9328815272947 1646.885920588304 430.9328815272947L1646.885920588304 430.9328815272947Q1639.174882497414 430.9328815272947 1632.8978269286895 437.0205431779974L1632.8978269286895 437.0205431779974Q1627.4865721280648 442.24240406060017 1624.6456633577368 450.332229987534L1624.6456633577368 450.332229987534Q1624.456269439715 452.9025760178307 1624.456269439715 455.66231596614927L1624.456269439715 455.66231596614927L1624.456269439715 461.07357076677386Q1624.456269439715 497.7077657670027 1628.812329554218 512.7239978387361L1628.812329554218 512.7239978387361ZM1767.2322273541959 411.0465201349991L1767.2322273541959 411.0465201349991Q1769.7755171104895 416.7553939496581 1769.7755171104895 422.5454365863265Q1769.7755171104895 428.36253549699796 1769.2614479044305 432.15041385743524Q1768.747378698371 435.9653484918756 1767.692184012249 439.4826641122816L1767.692184012249 439.4826641122816Q1765.3112318999742 447.4642649432029 1760.9281155114681 451.73915623569644L1760.9281155114681 451.73915623569644Q1757.978981645128 437.0205431779974 1754.5157785727283 432.6374267894914Q1751.0525755003282 428.2543104009855 1747.5893724279285 426.7391590568106Q1744.0991130815255 425.2240077126357 1740.203009625076 425.2240077126357Q1736.306906168626 425.2240077126357 1733.844785234342 425.98158338472314Q1731.3556080260546 426.7391590568106 1729.5428376678456 428.17314157897613L1729.5428376678456 428.17314157897613Q1725.4573402933738 431.3116693633384 1725.4573402933738 435.2889416417975Q1725.4573402933738 439.2932701942598 1727.459504569605 442.18829151259393Q1729.4616688458364 445.0833128309281 1732.7354780002138 447.62660258722167Q1736.0092871545917 450.14283606951216 1740.203009625076 452.523788181787L1740.203009625076 452.523788181787L1748.752792210063 457.366861228346Q1759.791752003337 463.5356917010581 1763.8772493778088 467.6482453495329L1763.8772493778088 467.6482453495329Q1771.9670753047426 475.71101500246357 1771.9670753047426 484.6666416974973L1771.9670753047426 484.6666416974973Q1771.9670753047426 496.3549520668465 1763.9854744738213 504.363609171771L1763.9854744738213 504.363609171771Q1753.8934842706562 514.6179370189546 1733.7365601383294 514.6179370189546L1733.7365601383294 514.6179370189546Q1715.3653500902087 514.6179370189546 1706.1391606551438 506.0681544339677L1706.1391606551438 506.0681544339677Q1703.487645802838 503.57897722568043 1702.3512822947064 501.1168562913962L1702.3512822947064 501.1168562913962Q1703.1088579667942 493.9739999545717 1708.7095066854406 487.69694438584713L1708.7095066854406 487.69694438584713Q1714.1478177600684 481.6092827351444 1719.2885098206618 480.6623131450351L1719.2885098206618 480.6623131450351Q1718.909721984618 481.90690174917876 1718.909721984618 484.36902268346296Q1718.909721984618 486.8581998917503 1720.3166482327806 490.5107968821719Q1721.750630754946 494.1633938725936 1724.402145607252 497.30192165695587L1724.402145607252 497.30192165695587Q1730.4086384359452 504.5530030897928 1737.9302826088137 504.5530030897928Q1745.4248705076789 504.5530030897928 1748.9692424020877 501.1168562913962Q1752.4865580224941 497.7077657670027 1752.4865580224941 493.3246493784967Q1752.4865580224941 488.9415329899908 1750.4843937462629 485.99239912365033Q1748.4822294700316 483.04326525730994 1745.2084203156537 480.4729192270132Q1741.9075548872725 477.9025731967165 1737.740888690792 475.5216210844417L1737.740888690792 475.5216210844417L1729.1640498318015 470.67854803788265Q1718.23331513454 464.2120985511362 1714.1478177600684 459.6395882446084L1714.1478177600684 459.6395882446084Q1705.949766737122 450.5216239055559 1705.949766737122 439.78028312631596L1705.949766737122 439.78028312631596Q1705.949766737122 428.44370431900734 1715.4735751862213 421.4090730781953L1715.4735751862213 421.4090730781953Q1724.5103707032645 414.75322967342703 1738.011451430823 414.75322967342703L1738.011451430823 414.75322967342703L1754.7592850387564 415.8895931815582Q1760.846946689459 415.8895931815582 1763.2278988017338 414.42855438538953Q1765.6088509140086 412.94045931521777 1767.2322273541959 411.0465201349991Z " fill="#fce77d" transform="matrix(0.4985461605167827,0,0,0.49854616051678263,-8.407396489543455,80.83016602174138)"/></g></svg>